<?xml version="1.0" standalone="no"?>
<!DOCTYPE svg PUBLIC "-//W3C//DTD SVG 20010904//EN"
 "http://www.w3.org/TR/2001/REC-SVG-20010904/DTD/svg10.dtd">
<svg version="1.0" xmlns="http://www.w3.org/2000/svg"
 width="1000.000000pt" height="1000.000000pt" viewBox="0 0 1000.000000 1000.000000"
 preserveAspectRatio="xMidYMid meet">

<g transform="translate(0.000000,1000.000000) scale(0.100000,-0.100000)"
fill="#000000" stroke="none">
<path d="M0 5000 l0 -5000 5000 0 5000 0 0 5000 0 5000 -5000 0 -5000 0 0
-5000z m5310 4116 c244 -43 429 -104 640 -211 418 -214 743 -546 951 -971 38
-77 69 -147 69 -155 0 -8 4 -19 9 -24 5 -6 18 -44 31 -85 12 -41 25 -86 30
-100 8 -25 29 -118 50 -220 32 -156 31 -570 0 -720 -60 -280 -98 -398 -190
-585 -299 -611 -832 -1024 -1510 -1171 -178 -39 -508 -55 -679 -33 -307 38
-624 145 -846 284 -22 14 -47 28 -55 32 -8 4 -56 37 -107 73 -416 299 -696
704 -836 1210 -76 276 -88 663 -30 955 41 209 83 334 173 522 111 232 228 398
406 578 200 202 364 320 619 444 195 94 501 182 680 194 136 9 505 -2 595 -17z
m1585 -822 c187 -61 319 -138 431 -249 182 -179 264 -380 264 -644 0 -168 -25
-273 -102 -420 -58 -112 -239 -324 -259 -304 -4 4 -1 73 7 152 14 129 14 163
0 321 -8 97 -20 197 -25 221 -36 165 -44 199 -57 244 -34 116 -46 151 -84 250
-51 129 -166 333 -222 392 -17 17 -27 36 -24 42 9 14 12 14 71 -5z m-4220
-1321 c3 -253 19 -376 77 -603 20 -77 62 -209 78 -245 5 -11 25 -58 46 -105
44 -100 129 -243 191 -319 24 -30 40 -58 35 -63 -11 -11 -139 15 -230 46 -331
114 -544 353 -592 666 -41 270 48 538 242 727 60 58 141 123 147 117 2 -2 5
-102 6 -221z m798 -1741 l27 -28 -3 -164 -2 -165 -109 -148 c-60 -82 -115
-155 -123 -163 -34 -33 -130 -5 -163 48 -37 61 -28 98 56 232 216 345 263 416
277 416 7 0 25 -13 40 -28z m229 -163 c249 -181 492 -287 842 -369 82 -18 457
-52 516 -45 323 34 462 65 685 150 132 50 358 171 444 237 13 10 27 15 32 12
5 -3 9 -39 9 -79 l0 -74 -52 -39 c-47 -35 -193 -122 -204 -122 -2 0 -28 -12
-57 -26 -121 -59 -317 -116 -533 -156 -106 -19 -153 -21 -424 -21 -268 0 -319
2 -420 21 -291 53 -501 127 -705 245 -88 51 -220 151 -229 172 -3 9 -6 46 -6
81 0 80 8 82 102 13z m2751 -39 c69 -30 159 -102 216 -170 75 -90 106 -153
142 -290 27 -105 28 -318 1 -410 -29 -100 -68 -174 -112 -214 -35 -31 -47 -36
-90 -36 -40 0 -54 5 -74 26 -42 46 -41 110 4 187 42 73 63 159 64 257 0 87 -3
101 -33 164 -32 65 -89 132 -168 198 l-33 26 0 134 c0 74 3 138 7 141 11 11
28 8 76 -13z m-2777 -229 c88 -69 280 -174 394 -216 232 -83 427 -129 630
-145 171 -15 198 -18 205 -31 4 -5 8 -40 11 -77 14 -225 26 -366 34 -418 6
-32 10 -63 11 -69 3 -30 20 62 24 130 3 44 9 127 15 185 5 58 12 135 16 173 8
89 17 97 112 99 42 0 82 2 87 3 6 1 42 5 80 9 143 15 349 62 488 112 40 14 86
30 102 36 48 18 229 113 279 147 25 18 51 29 58 25 13 -8 4 -272 -9 -285 -4
-4 -39 -13 -78 -19 -131 -21 -244 -66 -393 -157 -180 -109 -329 -248 -510
-475 -47 -60 -88 -108 -91 -108 -243 -4 -373 -53 -443 -166 -23 -35 -28 -56
-28 -105 0 -72 8 -89 68 -151 l46 -47 -51 -54 c-100 -105 -155 -215 -156 -310
0 -48 5 -65 29 -99 81 -115 257 -125 473 -26 46 21 85 38 86 38 2 0 11 -26 21
-57 23 -76 117 -175 182 -193 93 -24 187 12 271 106 46 52 111 168 111 197 0
8 8 21 18 29 20 18 119 45 129 35 8 -8 -21 -82 -88 -223 l-48 -101 -63 -30
c-200 -97 -369 -141 -631 -163 -351 -31 -730 46 -965 197 -48 30 -57 42 -96
126 -24 50 -58 130 -76 177 -18 47 -37 94 -41 105 -13 31 -64 192 -84 265 -9
36 -23 85 -30 110 -7 25 -20 81 -30 125 -9 44 -23 107 -30 140 -8 33 -16 78
-20 100 -3 22 -13 81 -21 130 -46 280 -92 934 -67 958 11 12 19 8 69 -32z
m-642 -4 c17 -13 17 -15 2 -45 -10 -19 -16 -56 -16 -94 0 -78 28 -126 93 -157
83 -40 181 -17 253 59 21 21 41 37 46 34 16 -10 58 -83 75 -131 25 -69 24
-246 -2 -338 -26 -97 -121 -249 -274 -440 -31 -38 -58 -72 -61 -75 -3 -3 -39
-43 -80 -89 -41 -46 -105 -111 -143 -143 -65 -56 -69 -58 -125 -58 -31 0 -75
5 -97 11 -22 6 -59 14 -82 19 -23 5 -50 13 -60 18 -10 5 -36 17 -58 27 -71 31
-99 47 -165 96 -106 77 -114 88 -111 161 6 198 100 506 219 722 130 237 280
399 392 424 67 15 173 14 194 -1z m3379 -504 c26 -11 59 -29 75 -41 l27 -22
-23 -17 c-69 -53 -92 -78 -108 -118 -20 -54 -14 -92 26 -163 64 -110 216 -157
287 -86 13 13 28 24 33 24 17 0 12 -190 -7 -240 -60 -162 -275 -348 -518 -449
-124 -51 -144 -59 -235 -85 -123 -35 -212 -53 -323 -67 l-97 -12 -38 30 c-78
63 -179 214 -225 338 -66 180 -65 194 22 310 228 303 484 512 730 595 77 26
100 29 221 25 74 -2 119 -9 153 -22z m-4278 -823 c1 -52 8 -112 16 -133 12
-36 12 -40 -5 -52 -22 -17 -134 -30 -180 -21 -21 4 -41 16 -51 33 -23 35 -8
84 44 151 41 51 137 123 160 119 10 -1 14 -25 16 -97z m3005 84 c0 -9 -9 -28
-19 -43 -19 -26 -73 -137 -85 -173 -9 -29 -38 -24 -144 26 -35 16 -82 67 -82
89 0 31 62 82 121 99 30 9 89 16 132 17 64 1 77 -2 77 -15z m-2873 -47 c11
-19 113 -87 193 -129 84 -45 235 -88 305 -88 40 0 45 -12 13 -34 -25 -18 -104
-21 -140 -7 -13 5 -50 17 -83 27 -73 21 -219 94 -278 139 -42 32 -65 74 -52
95 9 14 33 12 42 -3z m2958 -39 c8 -28 15 -56 15 -62 0 -5 24 -59 54 -120 51
-104 116 -195 172 -238 33 -27 30 -38 -11 -38 -27 0 -43 9 -76 42 -57 58 -128
168 -166 258 -49 116 -55 141 -42 178 16 47 36 40 54 -20z m-75 -83 c0 -35 78
-190 136 -270 77 -105 76 -99 9 -91 -71 8 -153 41 -182 72 -47 50 -49 146 -6
262 15 40 43 58 43 27z m-2844 -28 c87 -59 228 -121 301 -132 23 -4 47 -13 53
-20 9 -11 2 -18 -36 -34 -70 -31 -201 -30 -252 3 -52 33 -77 63 -106 126 -26
56 -33 90 -17 90 5 0 31 -15 57 -33z m634 -174 c30 -103 21 -192 -23 -233 -30
-28 -110 -27 -162 3 -37 21 -105 97 -105 118 0 5 12 14 28 20 69 27 150 70
187 98 22 17 45 31 52 31 7 0 17 -17 23 -37z m2070 -29 c7 -74 30 -117 80
-152 22 -15 39 -32 40 -38 0 -15 -100 -67 -179 -93 -75 -24 -187 -28 -216 -7
-39 28 3 124 98 225 61 65 146 133 161 128 6 -2 13 -30 16 -63z m-2777 7 c24
-54 100 -103 163 -103 27 -1 48 -6 51 -14 5 -15 -86 -141 -142 -196 -51 -50
-111 -78 -168 -78 -43 0 -49 3 -58 28 -29 74 19 270 93 375 26 37 41 34 61
-12z m3377 -258 c0 -25 -59 -129 -93 -163 -96 -99 -180 -49 -210 125 -3 17 -2
36 2 43 4 7 51 12 136 14 148 3 165 1 165 -19z m41 -494 c-31 -42 -80 -79
-106 -79 -8 0 -29 -6 -47 -14 -82 -35 -259 -69 -449 -87 -224 -20 -524 19
-738 96 -72 26 -97 42 -130 84 -54 67 -39 77 55 35 313 -138 768 -170 1129
-77 82 21 233 72 275 94 47 24 52 3 11 -52z m-141 -180 c0 -30 -190 -189 -282
-236 -208 -107 -398 -109 -603 -8 -130 65 -315 219 -291 242 5 6 35 -1 116
-27 52 -17 200 -39 325 -50 209 -17 433 5 650 64 32 9 61 19 64 21 8 9 21 5
21 -6z m-832 -445 c55 -26 233 -60 260 -49 7 3 44 7 80 10 37 3 91 10 121 15
30 6 56 10 58 10 1 0 9 -12 16 -27 23 -45 40 -160 33 -221 -10 -93 -25 -165
-36 -176 -5 -5 -10 -16 -10 -24 0 -25 -79 -178 -132 -254 -66 -95 -175 -228
-187 -228 -11 0 -124 153 -166 225 -58 98 -108 212 -139 314 -25 84 -22 297 5
372 12 33 26 59 32 59 5 0 35 -12 65 -26z"/>
<path d="M6195 7244 c-249 -71 -356 -143 -695 -469 -239 -230 -312 -275 -446
-275 -45 0 -94 4 -110 9 -16 5 -58 17 -94 26 -36 10 -108 30 -160 45 -52 16
-106 30 -120 33 -14 3 -68 15 -120 26 -316 71 -641 72 -840 5 -195 -66 -332
-202 -361 -360 -15 -78 -5 -275 16 -334 87 -241 252 -419 505 -545 41 -21 86
-41 100 -46 14 -4 50 -17 80 -28 50 -20 132 -41 265 -70 331 -72 944 -43 1270
60 427 134 686 284 969 559 231 225 333 375 402 595 27 82 29 103 29 240 0
174 -13 230 -77 325 -66 100 -160 166 -287 204 -69 20 -255 21 -326 0z m-110
-726 c65 -25 152 -98 162 -136 3 -14 12 -37 19 -51 8 -15 14 -57 14 -95 0
-123 -73 -234 -184 -280 -56 -23 -182 -21 -241 4 -68 29 -160 120 -175 174
-29 106 6 234 89 316 88 87 202 112 316 68z m-1613 -365 c113 -40 181 -132
199 -271 l12 -90 -49 -72 c-73 -108 -149 -150 -269 -150 -107 0 -175 35 -250
127 -38 46 -44 61 -50 115 -8 82 13 172 55 233 72 105 226 152 352 108z"/>
<path d="M2797 4644 c-24 -25 13 -164 62 -233 12 -16 21 -35 21 -42 0 -7 -47
-124 -104 -259 -57 -135 -112 -269 -121 -298 -10 -29 -21 -55 -26 -58 -12 -7
-12 -54 0 -54 5 0 50 82 101 183 100 197 204 377 244 420 21 23 29 25 51 17
65 -25 335 4 328 35 -2 6 -42 13 -90 17 -223 17 -362 89 -432 226 -15 29 -30
50 -34 46z"/>
<path d="M6161 4075 c-36 -81 -55 -182 -43 -222 8 -25 8 -42 1 -55 -11 -21
-288 -230 -449 -339 -52 -35 -103 -72 -113 -82 -17 -17 -16 -17 10 -11 43 10
317 153 487 254 l153 90 47 -26 c29 -16 69 -28 105 -31 75 -7 173 5 168 20 -2
6 -39 20 -83 30 -115 28 -170 71 -228 177 -16 28 -19 54 -19 138 0 56 -3 102
-8 102 -4 0 -17 -20 -28 -45z"/>
</g>
</svg>
